<svg viewBox="0 0 256 256" fill="none" xmlns="http://www.w3.org/2000/svg">
<rect x="25" y="25" width="206" height="206" rx="46" fill="#E3D04C"/>
<path d="M169.081 190.246C170.71 193.532 173.24 196.295 176.381 198.214C179.521 200.134 183.144 201.133 186.831 201.096C194.273 201.096 199.031 197.4 199.031 192.281C199.031 186.177 194.143 183.994 185.951 180.434L181.458 178.521C168.487 173.035 159.885 166.166 159.885 151.64C159.885 138.261 170.125 128.069 186.19 128.069C191.39 127.696 196.585 128.852 201.128 131.392C205.672 133.933 209.361 137.747 211.736 142.357L197.693 151.274C196.778 148.988 195.186 147.033 193.126 145.667C191.067 144.3 188.638 143.588 186.162 143.625C185.082 143.517 183.991 143.635 182.959 143.969C181.927 144.304 180.976 144.848 180.167 145.568C179.359 146.287 178.71 147.166 178.262 148.149C177.814 149.131 177.578 150.196 177.567 151.274C177.567 156.625 180.905 158.795 188.613 162.124L193.105 164.037C208.371 170.54 217 177.165 217 192.064C217 208.128 204.295 216.931 187.234 216.931C180.587 217.351 173.959 215.852 168.15 212.614C162.341 209.376 157.6 204.537 154.498 198.682L169.081 190.246ZM105.624 191.792C108.443 196.763 111.01 200.967 117.182 200.967C123.08 200.967 126.808 198.675 126.808 189.758V129.086H144.77V189.995C144.77 208.468 133.847 216.876 117.946 216.876C112.326 217.182 106.744 215.79 101.935 212.885C97.1254 209.981 93.3134 205.698 91 200.601L105.624 191.792Z" fill="#2F302E"/>
</svg>
