<svg viewBox="0 0 256 256" fill="none" xmlns="http://www.w3.org/2000/svg">
<rect x="25" y="25" width="206" height="206" rx="46" fill="#282C34"/>
<path d="M120.658 114.371C118.07 115.865 115.984 118.093 114.663 120.773C113.341 123.452 112.844 126.463 113.234 129.425C113.624 132.387 114.884 135.167 116.853 137.414C118.823 139.66 121.415 141.272 124.301 142.045C127.186 142.819 130.237 142.719 133.066 141.759C135.895 140.799 138.376 139.022 140.195 136.652C142.014 134.282 143.09 131.426 143.286 128.444C143.482 125.463 142.789 122.491 141.296 119.903C140.304 118.185 138.984 116.678 137.41 115.47C135.836 114.262 134.039 113.376 132.123 112.862C130.206 112.348 128.207 112.217 126.24 112.476C124.273 112.735 122.376 113.379 120.658 114.371ZM188.367 130.764C187.374 129.63 186.328 128.494 185.229 127.355C185.995 126.543 186.74 125.734 187.462 124.927C201.037 109.669 206.772 94.359 201.46 85.1648C196.368 76.3428 181.219 73.7122 162.247 77.4001C160.381 77.7666 158.523 78.1782 156.673 78.635C156.318 77.417 155.943 76.2046 155.548 74.9979C149.111 55.6029 138.716 42.9915 128.092 43C117.909 43 108.063 54.8163 101.779 73.0948C101.158 74.8992 100.586 76.7149 100.062 78.5419C98.8266 78.2374 97.5861 77.9555 96.3399 77.6961C76.3275 73.5938 60.2143 76.3005 54.911 85.5116C49.8275 94.3336 55.1393 108.772 67.8353 123.337C69.0984 124.775 70.3953 126.185 71.7261 127.566C70.1529 129.174 68.6727 130.789 67.2855 132.396C54.894 146.758 49.8867 160.951 54.9617 169.74C60.2059 178.824 76.0906 181.793 95.4348 177.987C97.0024 177.676 98.5616 177.327 100.112 176.938C100.676 178.917 101.299 180.882 101.982 182.833C108.241 200.739 118.027 212.167 128.177 212.167C138.665 212.167 149.171 199.877 155.54 181.218C156.047 179.746 156.512 178.215 156.969 176.642C158.971 177.138 160.987 177.578 163.017 177.961C181.651 181.488 196.444 178.722 201.511 169.926C206.747 160.833 201.342 145.591 188.367 130.764ZM61.1701 89.1148C64.435 83.4478 77.6047 81.2317 94.885 84.7842C95.9903 85.0097 97.1152 85.2635 98.2599 85.5454C96.5707 93.0087 95.3783 100.576 94.6905 108.197C88.4588 112.579 82.5171 117.359 76.9026 122.508C75.6677 121.228 74.4638 119.917 73.2909 118.575C62.405 106.108 58.1082 94.4351 61.1701 89.1148ZM94.0477 137.564C89.7339 134.291 85.7162 130.941 82.0707 127.575C85.7077 124.225 89.7255 120.893 94.0392 117.628C93.8813 120.949 93.8052 124.273 93.8108 127.6C93.8108 130.927 93.8898 134.249 94.0477 137.564ZM94.0477 170.89C86.7162 172.523 79.1467 172.792 71.7177 171.685C69.681 171.526 67.6987 170.951 65.8932 169.995C64.0877 169.039 62.4975 167.723 61.2209 166.128C58.1336 160.799 62.1597 149.397 72.758 137.116C74.0888 135.576 75.4647 134.077 76.8857 132.616C82.5028 137.797 88.4563 142.6 94.7074 146.995C95.4021 154.713 96.6058 162.376 98.3107 169.934C96.9009 170.289 95.4771 170.611 94.0392 170.898L94.0477 170.89ZM154.102 102.893C151.265 101.106 148.395 99.3776 145.491 97.7085C142.627 96.062 139.731 94.4746 136.805 92.9465C141.616 90.9144 146.525 89.1218 151.514 87.5754C152.633 92.6347 153.497 97.7472 154.102 102.893ZM108.621 75.4377C114.001 59.7898 121.969 50.2319 128.109 50.2319C134.648 50.2234 143.14 60.5341 148.697 77.2732C149.058 78.3671 149.396 79.4667 149.712 80.5719C142.417 82.8328 135.279 85.5736 128.346 88.7765C121.436 85.5344 114.315 82.7622 107.031 80.4789C107.522 78.7872 108.052 77.1068 108.621 75.4377ZM105.238 87.4824C110.204 89.0453 115.088 90.8577 119.871 92.9126C113.939 95.9689 108.165 99.2987 102.548 102.902C103.225 97.5055 104.13 92.3375 105.238 87.4824ZM102.557 152.273C105.359 154.072 108.204 155.8 111.091 157.458C114.035 159.15 117.015 160.774 120.032 162.33C115.214 164.456 110.29 166.334 105.28 167.955C104.116 162.778 103.207 157.548 102.557 152.282V152.273ZM148.705 178.883C146.455 186.048 142.906 192.737 138.234 198.616C137.081 200.302 135.594 201.733 133.865 202.821C132.137 203.909 130.204 204.632 128.186 204.943C122.019 204.943 114.162 195.766 108.816 180.448C108.184 178.638 107.604 176.811 107.073 174.967C114.392 172.606 121.541 169.752 128.473 166.424C135.465 169.653 142.662 172.419 150.016 174.705C149.61 176.109 149.173 177.502 148.705 178.883ZM151.767 167.684C146.714 166.106 141.74 164.283 136.864 162.22C139.734 160.715 142.624 159.122 145.534 157.441C148.522 155.716 151.432 153.948 154.263 152.138C153.697 157.359 152.864 162.548 151.767 167.684ZM155.548 127.566C155.548 132.703 155.388 137.835 155.066 142.961C150.896 145.786 146.498 148.543 141.922 151.182C137.354 153.813 132.846 156.232 128.414 158.422C123.751 156.189 119.177 153.782 114.694 151.199C110.24 148.633 105.887 145.901 101.635 143.003C101.24 137.872 101.043 132.734 101.043 127.592C101.043 122.455 101.234 117.321 101.618 112.189C110.121 106.384 119.05 101.23 128.329 96.7696C132.931 99.0083 137.45 101.408 141.888 103.968C146.343 106.528 150.713 109.232 154.998 112.079C155.365 117.233 155.548 122.396 155.548 127.566ZM163.634 84.4881C179.891 81.3332 192.139 83.4562 195.209 88.7765C198.483 94.4436 193.797 106.945 182.065 120.123C181.417 120.851 180.746 121.581 180.052 122.314C174.338 117.149 168.279 112.378 161.917 108.036C161.277 100.499 160.132 93.0139 158.492 85.63C160.24 85.2015 161.954 84.8208 163.634 84.4881ZM162.535 117.349C166.828 120.482 170.955 123.836 174.901 127.397C170.974 131.016 166.86 134.426 162.577 137.615C162.707 134.265 162.772 130.916 162.772 127.566C162.772 124.161 162.693 120.755 162.535 117.349ZM195.26 166.314C192.181 171.651 180.306 173.876 164.362 170.865C162.535 170.521 160.663 170.109 158.745 169.63C160.346 162.15 161.44 154.571 162.019 146.944C168.369 142.529 174.409 137.683 180.094 132.438C181.092 133.47 182.04 134.497 182.936 135.517C188.02 141.045 192.043 147.462 194.803 154.447C195.687 156.289 196.183 158.292 196.262 160.333C196.34 162.374 195.999 164.41 195.26 166.314Z" fill="#00D8FF"/>
</svg>
