<svg viewBox="0 0 256 256" fill="none" xmlns="http://www.w3.org/2000/svg">
<g filter="url(#filter0_d_587_210)">
<rect x="25" y="25" width="206" height="206" rx="46" fill="#3178C6"/>
</g>
<path fill-rule="evenodd" clip-rule="evenodd" d="M158.288 193.003V212.2C161.789 213.922 165.52 215.133 169.366 215.798C173.811 216.616 178.323 217.018 182.843 216.999C187.248 217.02 191.644 216.578 195.956 215.679C199.827 214.9 203.521 213.415 206.852 211.299C209.943 209.31 212.492 206.589 214.268 203.377C217.45 196.728 217.87 189.096 215.436 182.14C214.41 179.539 212.88 177.164 210.934 175.151C208.845 173.01 206.472 171.164 203.881 169.664C200.898 167.923 197.799 166.388 194.606 165.071C192.094 164.032 189.833 163.023 187.823 162.042C186.038 161.191 184.33 160.188 182.718 159.045C181.455 158.163 180.358 157.066 179.477 155.804C178.716 154.658 178.32 153.31 178.34 151.937C178.324 150.673 178.677 149.431 179.358 148.364C180.097 147.247 181.083 146.314 182.24 145.636C183.655 144.806 185.194 144.208 186.8 143.865C188.77 143.429 190.785 143.219 192.803 143.239C194.501 143.245 196.196 143.366 197.877 143.602C199.693 143.847 201.489 144.217 203.253 144.71C205.047 145.205 206.802 145.833 208.503 146.587C210.154 147.32 211.733 148.204 213.22 149.228V131.313C210.124 130.146 206.914 129.307 203.643 128.81C199.692 128.237 195.703 127.968 191.711 128.003C187.347 127.98 182.995 128.473 178.749 129.474C174.91 130.348 171.26 131.901 167.972 134.06C164.918 136.087 162.396 138.814 160.618 142.013C158.734 145.565 157.802 149.541 157.911 153.558C157.772 158.869 159.528 164.057 162.866 168.199C166.962 172.793 172.127 176.314 177.907 178.455C180.545 179.54 183.004 180.601 185.286 181.64C187.345 182.553 189.324 183.635 191.202 184.875C192.717 185.857 194.047 187.096 195.133 188.535C196.088 189.841 196.594 191.419 196.578 193.034C196.586 194.245 196.274 195.436 195.673 196.488C195.005 197.619 194.067 198.567 192.941 199.248C191.533 200.103 189.993 200.72 188.382 201.075C186.284 201.542 184.139 201.763 181.989 201.732C177.771 201.724 173.586 200.983 169.624 199.542C165.484 198.053 161.645 195.839 158.288 193.003ZM125.921 145.21H151.041V129.398H81V145.21H106.007V215.629H125.921V145.21Z" fill="white"/>
<defs>
<filter id="filter0_d_587_210" x="19.5" y="22.25" width="217" height="217" filterUnits="userSpaceOnUse" color-interpolation-filters="sRGB">
<feFlood flood-opacity="0" result="BackgroundImageFix"/>
<feColorMatrix in="SourceAlpha" type="matrix" values="0 0 0 0 0 0 0 0 0 0 0 0 0 0 0 0 0 0 127 0" result="hardAlpha"/>
<feOffset dy="2.75"/>
<feGaussianBlur stdDeviation="2.75"/>
<feColorMatrix type="matrix" values="0 0 0 0 0 0 0 0 0 0 0 0 0 0 0 0 0 0 0.28 0"/>
<feBlend mode="normal" in2="BackgroundImageFix" result="effect1_dropShadow_587_210"/>
<feBlend mode="normal" in="SourceGraphic" in2="effect1_dropShadow_587_210" result="shape"/>
</filter>
</defs>
</svg>
