<svg viewBox="0 0 256 256" fill="none" xmlns="http://www.w3.org/2000/svg">
<rect x="25" y="25" width="206" height="206" rx="46" fill="white"/>
<path d="M66.75 102H189.25C194.063 102 198 105.9 198 110.667C198 115.433 194.063 119.333 189.25 119.333H66.75C61.9375 119.333 58 115.433 58 110.667C58 105.9 61.9375 102 66.75 102ZM66.75 136.667H136.75C141.563 136.667 145.5 140.567 145.5 145.333C145.5 150.1 141.563 154 136.75 154H66.75C61.9375 154 58 150.1 58 145.333C58 140.567 61.9375 136.667 66.75 136.667Z" fill="black"/>
</svg>
