<svg viewBox="0 0 256 256" fill="none" xmlns="http://www.w3.org/2000/svg">
<path d="M127.168 57.7115L107.706 39.6699C105.426 37.5535 102.719 35.8749 99.7396 34.7304C96.76 33.5859 93.5663 32.9979 90.3414 33H38.7043C36.511 32.999 34.339 33.399 32.3124 34.177C30.2858 34.9551 28.4443 36.0959 26.893 37.5344C25.3418 38.9729 24.1113 40.6809 23.2717 42.5607C22.4321 44.4405 22 46.4554 22 48.4902V102.25H242V77.7358C242 73.6275 240.241 69.6875 237.11 66.7825C233.979 63.8775 229.732 62.2455 225.304 62.2455H138.969C134.544 62.2463 130.3 60.6109 127.168 57.7115Z" fill="#4CA8C2"/>
<path d="M225.304 223H38.6964C36.5104 223.008 34.3443 222.552 32.322 221.658C30.2997 220.765 28.4608 219.451 26.9103 217.792C25.3597 216.134 24.128 214.162 23.2855 211.991C22.443 209.819 22.0062 207.491 22 205.137V80.1664C22 70.2962 29.4721 62.3037 38.6964 62.3037H225.304C234.528 62.3037 242 70.2962 242 80.1664V205.137C241.994 207.491 241.557 209.819 240.714 211.991C239.872 214.162 238.64 216.134 237.09 217.792C235.539 219.451 233.7 220.765 231.678 221.658C229.656 222.552 227.49 223.008 225.304 223Z" fill="#5FB8D7"/>
</svg>
