<svg viewBox="0 0 256 256" fill="none" xmlns="http://www.w3.org/2000/svg">
<path d="M135.164 64.6536H205.18C215.03 64.6536 222.326 71.3879 222.326 80.4804V88.3938L110.876 171.485L13.2295 208.915C9.88607 204.167 8 197.385 8 191.268V49.4599C8 45.0944 9.87871 40.9078 13.2228 37.821C16.567 34.7342 21.1026 33 25.8319 33H83.0569C89.9924 33 96.6451 35.5323 101.557 40.0429L122.587 59.8106C125.931 62.8731 130.457 64.6536 135.164 64.6536Z" fill="#4CA8C2"/>
<path d="M230.14 79H84.2191C77.7209 79.0025 71.3821 80.9873 66.0693 84.6832C60.7565 88.379 56.7291 93.6054 54.5378 99.6477C15.1884 211.098 18.4368 203.09 17.4426 204.343C17.0219 204.984 16.4474 205.513 15.7701 205.882C15.0927 206.251 14.3335 206.449 13.5599 206.459C13.0072 206.451 12.4674 206.293 12 206.002C14.9286 211.446 19.3856 215.939 24.8361 218.942C30.2865 221.945 36.4987 223.331 42.727 222.933H196.593C200.333 222.916 203.968 221.711 206.961 219.495C209.954 217.28 212.145 214.173 213.212 210.633L247.171 101.976C248.016 99.3317 248.219 96.5281 247.763 93.7922C247.307 91.0562 246.205 88.4647 244.547 86.2274C242.889 83.9901 240.72 82.17 238.217 80.9144C235.714 79.6588 232.947 79.003 230.14 79Z" fill="#5FB8D7"/>
</svg>
